<svg width="425" height="10" viewBox="0 0 425 10" fill="none" xmlns="http://www.w3.org/2000/svg">
<path d="M283.001 9.49999L353.751 9.5L353.751 0.53276L283.001 0.532753L283.001 9.49999Z" fill="black"/>
<path d="M353.751 9.49999L424.501 9.5L424.501 0.53276L353.751 0.532753L353.751 9.49999Z" fill="white"/>
<path d="M318.376 4.98388L353.751 4.98389L353.751 0.500216L318.376 0.500213L318.376 4.98388Z" fill="white"/>
<path d="M353.751 4.98388L389.126 4.98389L389.126 0.500216L353.751 0.500213L353.751 4.98388Z" fill="black"/>
<path d="M141.5 9.49999L212.25 9.5L212.25 0.53276L141.5 0.532753L141.5 9.49999Z" fill="black"/>
<path d="M212.25 9.49999L283 9.5L283 0.53276L212.25 0.532753L212.25 9.49999Z" fill="white"/>
<path d="M176.875 4.98388L212.25 4.98389L212.25 0.500216L176.875 0.500213L176.875 4.98388Z" fill="white"/>
<path d="M212.25 4.98388L247.625 4.98389L247.625 0.500216L212.25 0.500213L212.25 4.98388Z" fill="black"/>
<path d="M3.05176e-05 9.49999L70.7501 9.5L70.7501 0.53276L3.15185e-05 0.532753L3.05176e-05 9.49999Z" fill="black"/>
<path d="M70.7501 9.49999L141.5 9.5L141.5 0.53276L70.7501 0.532753L70.7501 9.49999Z" fill="white"/>
<path d="M35.3751 4.98388L70.7501 4.98389L70.7501 0.500216L35.3751 0.500213L35.3751 4.98388Z" fill="white"/>
<path d="M70.7502 4.98388L106.125 4.98389L106.125 0.500216L70.7502 0.500213L70.7502 4.98388Z" fill="black"/>
</svg>
