<svg width="5" height="191" viewBox="0 0 5 191" fill="none" xmlns="http://www.w3.org/2000/svg">
<path d="M4.53662 64L4.53662 32.5L0.551187 32.5L0.551186 64L4.53662 64Z" fill="black" stroke="black" stroke-width="0.2" stroke-miterlimit="10"/>
<path d="M4.53662 32.5L4.53662 1L0.551187 1L0.551186 32.5L4.53662 32.5Z" fill="white" stroke="black" stroke-width="0.2" stroke-miterlimit="10"/>
<path d="M2.5293 48.25L2.5293 32.5L0.536558 32.5L0.536557 48.25L2.5293 48.25Z" fill="white" stroke="black" stroke-width="0.2" stroke-miterlimit="10"/>
<path d="M2.5293 32.5L2.5293 16.75L0.536558 16.75L0.536557 32.5L2.5293 32.5Z" fill="black" stroke="black" stroke-width="0.2" stroke-miterlimit="10"/>
<path d="M4.53662 127L4.53662 95.5L0.551187 95.5L0.551186 127L4.53662 127Z" fill="black" stroke="black" stroke-width="0.2" stroke-miterlimit="10"/>
<path d="M4.53662 95.5L4.53662 64L0.551187 64L0.551186 95.5L4.53662 95.5Z" fill="white" stroke="black" stroke-width="0.2" stroke-miterlimit="10"/>
<path d="M2.5293 111.25L2.5293 95.5L0.536558 95.5L0.536557 111.25L2.5293 111.25Z" fill="white" stroke="black" stroke-width="0.2" stroke-miterlimit="10"/>
<path d="M2.5293 95.5L2.5293 79.75L0.536558 79.75L0.536557 95.5L2.5293 95.5Z" fill="black" stroke="black" stroke-width="0.2" stroke-miterlimit="10"/>
<path d="M4.53662 190L4.53662 158.5L0.551187 158.5L0.551186 190L4.53662 190Z" fill="black" stroke="black" stroke-width="0.2" stroke-miterlimit="10"/>
<path d="M4.53662 158.5L4.53662 127L0.551187 127L0.551186 158.5L4.53662 158.5Z" fill="white" stroke="black" stroke-width="0.2" stroke-miterlimit="10"/>
<path d="M2.5293 174.25L2.5293 158.5L0.536558 158.5L0.536557 174.25L2.5293 174.25Z" fill="white" stroke="black" stroke-width="0.2" stroke-miterlimit="10"/>
<path d="M2.5293 158.5L2.5293 142.75L0.536558 142.75L0.536557 158.5L2.5293 158.5Z" fill="black" stroke="black" stroke-width="0.2" stroke-miterlimit="10"/>
</svg>
