<svg width="9" height="403" viewBox="0 0 9 403" fill="none" xmlns="http://www.w3.org/2000/svg">
<path d="M8.5 134.639L8.5 67.8196L0.0309391 67.8196L0.0309369 134.639L8.5 134.639Z" fill="black" stroke="black" stroke-width="0.2" stroke-miterlimit="10"/>
<path d="M8.5 67.8196L8.5 1L0.0309391 1L0.0309369 67.8196L8.5 67.8196Z" fill="white" stroke="black" stroke-width="0.2" stroke-miterlimit="10"/>
<path d="M4.23462 101.229L4.23462 67.8196L4.19617e-05 67.8196L4.08506e-05 101.229L4.23462 101.229Z" fill="white" stroke="black" stroke-width="0.2" stroke-miterlimit="10"/>
<path d="M4.23462 67.8196L4.23462 34.4098L4.19617e-05 34.4098L4.08506e-05 67.8196L4.23462 67.8196Z" fill="black" stroke="black" stroke-width="0.2" stroke-miterlimit="10"/>
<path d="M8.5 268.278L8.5 201.459L0.0309391 201.459L0.0309369 268.278L8.5 268.278Z" fill="black" stroke="black" stroke-width="0.2" stroke-miterlimit="10"/>
<path d="M8.5 201.459L8.5 134.639L0.0309391 134.639L0.0309369 201.459L8.5 201.459Z" fill="white" stroke="black" stroke-width="0.2" stroke-miterlimit="10"/>
<path d="M4.23462 234.868L4.23462 201.459L4.19617e-05 201.459L4.08506e-05 234.868L4.23462 234.868Z" fill="white" stroke="black" stroke-width="0.2" stroke-miterlimit="10"/>
<path d="M4.23462 201.459L4.23462 168.049L4.19617e-05 168.049L4.08506e-05 201.459L4.23462 201.459Z" fill="black" stroke="black" stroke-width="0.2" stroke-miterlimit="10"/>
<path d="M8.5 401.917L8.5 335.098L0.0309391 335.098L0.0309369 401.917L8.5 401.917Z" fill="black" stroke="black" stroke-width="0.2" stroke-miterlimit="10"/>
<path d="M8.5 335.098L8.5 268.278L0.0309391 268.278L0.0309369 335.098L8.5 335.098Z" fill="white" stroke="black" stroke-width="0.2" stroke-miterlimit="10"/>
<path d="M4.23462 368.508L4.23462 335.098L4.19617e-05 335.098L4.08506e-05 368.508L4.23462 368.508Z" fill="white" stroke="black" stroke-width="0.2" stroke-miterlimit="10"/>
<path d="M4.23462 335.098L4.23462 301.688L4.19617e-05 301.688L4.08506e-05 335.098L4.23462 335.098Z" fill="black" stroke="black" stroke-width="0.2" stroke-miterlimit="10"/>
</svg>
