<svg width="259" height="17" viewBox="0 0 259 17" fill="none" xmlns="http://www.w3.org/2000/svg">
<path d="M60.4518 3.93579V6.53047H76.02V9.12516H91.5882V3.93579H60.4518Z" fill="white" stroke="white" stroke-width="0.378787" stroke-miterlimit="10"/>
<path d="M60.4505 6.53003H44.8824V9.12471H60.4505V6.53003Z" fill="white" stroke="white" stroke-width="0.378787" stroke-miterlimit="10"/>
<path d="M122.722 3.93579V6.53047H138.291V9.12516H153.859V3.93579H122.722Z" fill="white" stroke="white" stroke-width="0.378787" stroke-miterlimit="10"/>
<path d="M122.725 6.53003H107.157V9.12471H122.725V6.53003Z" fill="white" stroke="white" stroke-width="0.378787" stroke-miterlimit="10"/>
<path d="M216.151 3.93579H185.015V6.53047H200.583V9.12516H216.151V3.93579Z" fill="white" stroke="white" stroke-width="0.378787" stroke-miterlimit="10"/>
<path d="M185.014 6.53003H169.446V9.12471H185.014V6.53003Z" fill="white" stroke="white" stroke-width="0.378787" stroke-miterlimit="10"/>
<path d="M107.164 9.13812V7.8313L91.4064 7.8313V9.13812L107.164 9.13812Z" fill="white" stroke="white" stroke-width="0.378787" stroke-miterlimit="10"/>
<path d="M169.438 9.13495V7.82812L153.87 7.82812V9.13495L169.438 9.13495Z" fill="white" stroke="white" stroke-width="0.378787" stroke-miterlimit="10"/>
<path d="M256.419 9.14325V7.83643L216.059 7.83643V9.14325L256.419 9.14325Z" fill="white" stroke="white" stroke-width="0.378787" stroke-miterlimit="10"/>
<path d="M44.69 9.13079V7.82397L4.33023 7.82397V9.13079L44.69 9.13079Z" fill="white" stroke="white" stroke-width="0.378787" stroke-miterlimit="10"/>
<path d="M5.73484 1L1 9.18182H10.4507L5.73484 1Z" fill="white" stroke="white" stroke-width="0.378787" stroke-miterlimit="10"/>
<path d="M253.596 16.0003L248.88 7.8374H258.312L253.596 16.0003Z" fill="white" stroke="white" stroke-width="0.378787" stroke-miterlimit="10"/>
</svg>
