<?xml version="1.0" encoding="utf-8"?>
<!-- Generator: Adobe Illustrator 27.4.1, SVG Export Plug-In . SVG Version: 6.00 Build 0)  -->
<svg version="1.1" id="Layer_1" xmlns="http://www.w3.org/2000/svg" xmlns:xlink="http://www.w3.org/1999/xlink" x="0px" y="0px"
	 viewBox="0 0 180 1152" enable-background="new 0 0 180 1152" xml:space="preserve">
<path fill="#FFFFFF" d="M98.04,0H0c0,61.92,21.54,125.28,64.32,144l72.05-0.01l-0.35,0.01v60.19c0,14.11-18.23,35.13-35.31,43.77
	c-53.83,25.92-93.76-38.88-50.93-78.91c3.18-2.59,4.92-6.91,4.92-11.23V144H0v198c18,0,24.26-6.12,27-9
	c17.53-21.31,60.16-26.75,60.16,1.18c0,43.77-39.43,80.05-53.13,36.57c-0.55-2.3-1.37-4.61-1.64-6.91
	c-0.55-2.59-2.46-4.03-4.66-4.03H0V414c0,9,9,18,18,18l0,0H0c0,0,0,244.58,0,270c0,8.5,8.03,16.99,16.5,17.91L0,720
	c0,6.75,0,45,0,45h9c7.37-0.07,14.4-2.69,19.55-7.95c24.33-24.78,107.31-52.09,107.31,8.74c0,23.04-8.92,39.92-27.87,53.21
	c-34.37,24.11-67.53,8.67-72-9c-3.32-13.11,9.02-27.45,49.1-27.79c15.29-0.13,29.37,5.72,38.88,15.23c0.87,0.58,2.02,0,2.02-0.86
	V783c0-6.34-5.58-9-11.93-9H0v90c0,0,9,0,18,0c59.62,0,98.45-22.65,117-63v63C67.54,868.88,17.49,930.73,0,999v152.99l45,0.01
	v-47.84c0-14.11,14.01-35.14,30.2-43.78c38.22-19.4,69.82-2.62,64.15,32.88c-2.71,18.14-30.81,33.97-44.11,39.41
	c-10.35,4.23-9.52,19.32-9.52,19.32h31.83c41.44-18.72,62.46-83.09,62.46-145h-0.07l0.07-44H54.03c-30.64,0-11.75-53.45,30.12-48.02
	c18.76,2.43,29.27,9.56,42.24,23.1c6.65,7.97,12.09,6.77,35.61,6.93l0-72c0-4.55-2.85-7.98-6.82-9H180V691.49
	c0-10.08-21.78-9.5-28.09-2.59c-9.17,10.08-22.07,16.99-36.97,16.99H64.2c-14.33,0-20.92-16.42-20.92-30.53v-42.34
	c0-0.29,0.29-0.29,0.57-0.29c18.06,27.94,70.8,46.66,113.5,46.66H180V576H59.91v-58.18c2-29.66,26.24-52.99,55.91-52.99
	c2,0,3.71,0,5.42,0.29c13.69,1.15,19.4,18.14,9.41,27.65c-3.14,2.88-4.85,6.91-4.85,10.94v14.11H180c0,0,0-76.82,0-85.82h-19.4
	c-44.79,0-84.44,27.65-100.7,68.54c-0.86,3.46-4.28,5.76-7.99,5.47c-4.28,0-6.92-4.03-6.92-8.35V432l6.23,0
	c0.09,0,0.19-0.03,0.26-0.08c22.08-14.2,32.44-52.06,43.89-97.45c6.85-25.34,38.45-33.5,57.62-10.47c2.46,2.88,9,9,18,9h9
	c0,0,0-194.96,0-198.88v-0.21C180,61.63,141.67,0,98.04,0z M135,1008v18c-60-9-73.78,27.49-88.63,58.87c-0.27,0.58-1.37,0.86-1.37,0
	V1008H135z M108.63,594.14c30.06,7.05,48.77,28.48,45.57,45.79c-3.16,17.12-31,38.85-79.86,7.31
	C48.58,630.53,31.27,576,108.63,594.14z M10.72,288c63.73,0.5,103.38-23.5,123.85-64.52c0.29-0.58,1.45-0.86,1.45,0v64.51L10.72,288
	z M110.5,124.99c-18.7,10.94-49.02-4.32-67.72-33.7c-19.27-29.09-19.83-61.63-1.7-72c18.42-10.66,48.73,4.32,67.43,33.69
	C127.79,82.66,128.35,114.62,110.5,124.99z"/>
</svg>
