<svg width="948" height="22" viewBox="0 0 948 22" fill="none" xmlns="http://www.w3.org/2000/svg">
<path d="M631.667 21L789.333 21L789.333 1.07272L631.667 1.07273L631.667 21Z" fill="black" stroke="black" stroke-width="0.2" stroke-miterlimit="10"/>
<path d="M789.333 21L947 21L947 1.07272L789.333 1.07273L789.333 21Z" fill="white" stroke="black" stroke-width="0.2" stroke-miterlimit="10"/>
<path d="M710.5 10.9639L789.333 10.9639L789.333 1.00011L710.5 1.00012L710.5 10.9639Z" fill="white" stroke="black" stroke-width="0.2" stroke-miterlimit="10"/>
<path d="M789.333 10.9639L868.167 10.9639L868.167 1.00011L789.333 1.00012L789.333 10.9639Z" fill="black" stroke="black" stroke-width="0.2" stroke-miterlimit="10"/>
<path d="M316.333 21L474 21L474 1.07272L316.333 1.07273L316.333 21Z" fill="black" stroke="black" stroke-width="0.2" stroke-miterlimit="10"/>
<path d="M474 21L631.667 21L631.667 1.07272L474 1.07273L474 21Z" fill="white" stroke="black" stroke-width="0.2" stroke-miterlimit="10"/>
<path d="M395.167 10.9639L474 10.9639L474 1.00011L395.167 1.00012L395.167 10.9639Z" fill="white" stroke="black" stroke-width="0.2" stroke-miterlimit="10"/>
<path d="M474 10.9639L552.833 10.9639L552.833 1.00011L474 1.00012L474 10.9639Z" fill="black" stroke="black" stroke-width="0.2" stroke-miterlimit="10"/>
<path d="M1 21L158.667 21L158.667 1.07272L0.999999 1.07273L1 21Z" fill="black" stroke="black" stroke-width="0.2" stroke-miterlimit="10"/>
<path d="M158.667 21L316.333 21L316.333 1.07272L158.667 1.07273L158.667 21Z" fill="white" stroke="black" stroke-width="0.2" stroke-miterlimit="10"/>
<path d="M79.8334 10.9639L158.667 10.9639L158.667 1.00011L79.8334 1.00012L79.8334 10.9639Z" fill="white" stroke="black" stroke-width="0.2" stroke-miterlimit="10"/>
<path d="M158.667 10.9639L237.5 10.9639L237.5 1.00011L158.667 1.00012L158.667 10.9639Z" fill="black" stroke="black" stroke-width="0.2" stroke-miterlimit="10"/>
</svg>
