<?xml version="1.0" encoding="UTF-8"?>
<svg width="1440px" height="144px" viewBox="0 0 1440 144" version="1.1" xmlns="http://www.w3.org/2000/svg" xmlns:xlink="http://www.w3.org/1999/xlink">
    <title>Shape</title>
    <g id="Page-1" stroke="none" stroke-width="1" fill="none" fill-rule="evenodd">
        <g id="outreach-top" fill="#FFFFFF" fill-rule="nonzero">
            <path d="M1395,0 L1395,18 C1335,9 1321.22,45.49 1306.37,76.87 C1306.1,77.45 1305,77.73 1305,76.87 L1305,0.03 L1260,0.02 L1260,99 L1134.03,99 C1103.39,99 1122.28,45.55 1164.15,50.98 C1182.91,53.41 1193.42,60.54 1206.39,74.08 C1213.04,82.05 1218.48,80.85 1242,81.01 L1242,9.01 C1242,3.56 1238.23,0.01 1233,0.01 L1224,0.01 C1152.22,0.01 1098.25,63.87 1080.03,135.01 L1079.99,135.33 L1079.99,0 L700.6,0 C655.81,0 616.16,27.65 599.9,68.54 C599.04,72 595.62,74.3 591.91,74.01 C587.63,74.01 584.99,69.98 584.99,65.66 L584.99,0 L316.01,0 L316.01,60.19 C316.01,74.3 297.78,95.32 280.7,103.96 C226.87,129.88 186.94,65.08 229.77,25.05 C232.95,22.46 234.69,18.14 234.69,13.82 L234.69,0 L180,0 L180,133.92 C180,61.63 141.67,0 98.04,0 L0,0 C0,61.92 21.54,125.28 64.32,144 L181.14,143.99 L181.14,143.99 C244.64,144.36 294.15,120.4 314.56,79.49 C314.85,78.91 316.01,78.63 316.01,79.49 L316.01,144 L360,144 L360,126 C360,135 369,144 378,144 L411.23,144 C411.32,144 411.42,143.97 411.49,143.92 C433.57,129.72 443.93,91.86 455.38,46.47 C462.23,21.13 493.83,12.96 513,36 C515.46,38.88 522,45 531,45 L540,45 L540,144 L599.91,144 L599.91,85.82 C601.91,56.16 626.15,32.83 655.82,32.83 C657.82,32.83 659.53,32.83 661.24,33.12 C674.93,34.27 680.64,51.26 670.65,60.77 C667.51,63.65 665.8,67.68 665.8,71.71 L665.8,85.82 L720,85.82 C720,102.69 720,117.72 720,126 C720,135 729,144 738,144 C766.85,144 911.29,144 918,144 C977.62,144 1016.45,121.35 1035,81 L1035,144 L1305,144 L1305,96.16 C1305,82.05 1319.01,61.02 1335.2,52.38 C1373.42,32.98 1405.02,49.76 1399.35,85.26 C1396.64,103.4 1368.54,119.23 1355.24,124.67 C1344.89,128.9 1345.72,143.99 1345.72,143.99 L1377.55,143.99 C1418.98,125.28 1440,61.91 1440,0 L1395,0 Z M110.5,124.99 C91.8,135.93 61.48,120.67 42.78,91.29 C23.51,62.2 22.95,29.66 41.08,19.29 C59.5,8.63 89.81,23.61 108.51,52.98 C127.79,82.66 128.35,114.62 110.5,124.99 Z M394.04,82.75 C393.49,80.45 392.67,78.14 392.4,75.84 C391.85,73.25 389.94,71.81 387.74,71.81 L360,71.81 L360,54 C378,54 384.26,47.88 387,45 C404.53,23.69 447.16,18.25 447.16,46.18 C447.16,89.95 407.73,126.23 394.04,82.75 Z M828.63,18.14 C858.69,25.19 877.4,46.62 874.2,63.93 C871.04,81.05 843.2,102.78 794.34,71.24 C768.58,54.53 751.27,-1.77635684e-15 828.63,18.14 Z M871.91,112.9 C862.74,122.98 849.84,129.89 834.94,129.89 L784.2,129.89 C769.87,129.89 763.28,113.47 763.28,99.36 L763.28,57.02 C763.28,56.73 763.57,56.73 763.85,56.73 C781.91,84.67 834.65,103.39 877.35,103.39 L900,103.39 L900,115.49 C900,105.41 878.22,105.98 871.91,112.9 Z M1008,99 C973.63,123.11 940.47,107.67 936,90 C932.68,76.89 945.02,62.55 985.1,62.21 C1000.39,62.08 1014.46,67.93 1023.98,77.44 C1024.85,78.02 1026,77.44 1026,76.58 L1026,63 C1026,56.66 1020.42,54 1014.07,54 L900,54 L900,45 L909,45 C916.37,44.93 923.4,42.31 928.55,37.05 C952.88,12.27 1035.86002,-15.04 1035.86002,45.79 C1035.87,68.83 1026.95,85.71 1008,99 Z" id="Shape"></path>
        </g>
    </g>
</svg>