<?xml version="1.0" encoding="UTF-8"?>
<svg width="1476px" height="176px" viewBox="0 0 1476 176" version="1.1" xmlns="http://www.w3.org/2000/svg" xmlns:xlink="http://www.w3.org/1999/xlink">
    <title>Outreach-Logo_Optimised_Outreach-Horizontal-White-Desktop</title>
    <g id="Page-1" stroke="none" stroke-width="1" fill="none" fill-rule="evenodd">
        <g id="Outreach-Logo_Optimised_Outreach-Horizontal-White-Desktop" fill="#FFFFFF" fill-rule="nonzero">
            <path d="M1413,16 L1413,34 C1353,25 1339.22,61.49 1324.37,92.87 C1324.1,93.45 1323,93.73 1323,92.87 L1323,16.03 L1278,16.02 L1278,115 L1152.03,115 C1121.39,115 1140.28,61.55 1182.15,66.98 C1200.91,69.41 1211.42,76.54 1224.39,90.08 C1231.04,98.05 1236.48,96.85 1260,97.01 L1260,25.01 C1260,19.56 1256.23,16.01 1251,16.01 L1242,16.01 C1170.22,16.01 1116.25,79.87 1098.03,151.01 L1097.99,151.33 L1097.99,16 L718.6,16 C673.81,16 634.16,43.65 617.9,84.54 C617.04,88 613.62,90.3 609.91,90.01 C605.63,90.01 602.99,85.98 602.99,81.66 L602.99,16 L334.01,16 L334.01,76.19 C334.01,90.3 315.78,111.32 298.7,119.96 C244.87,145.88 204.94,81.08 247.77,41.05 C250.95,38.46 252.69,34.14 252.69,29.82 L252.69,16 L198,16 L198,149.92 C198,77.63 159.67,16 116.04,16 L18,16 C18,77.92 39.54,141.28 82.32,160 L199.14,159.99 L199.14,159.99 C262.64,160.36 312.15,136.4 332.56,95.49 C332.85,94.91 334.01,94.63 334.01,95.49 L334.01,160 L378,160 L378,142 C378,151 387,160 396,160 L429.23,160 C429.32,160 429.42,159.97 429.49,159.92 C451.57,145.72 461.93,107.86 473.38,62.47 C480.23,37.13 511.83,28.96 531,52 C533.46,54.88 540,61 549,61 L558,61 L558,160 L617.91,160 L617.91,101.82 C619.91,72.16 644.15,48.83 673.82,48.83 C675.82,48.83 677.53,48.83 679.24,49.12 C692.93,50.27 698.64,67.26 688.65,76.77 C685.51,79.65 683.8,83.68 683.8,87.71 L683.8,101.82 L738,101.82 C738,118.69 738,133.72 738,142 C738,151 747,160 756,160 C784.85,160 929.29,160 936,160 C995.62,160 1034.45,137.35 1053,97 L1053,160 L1323,160 L1323,112.16 C1323,98.05 1337.01,77.02 1353.2,68.38 C1391.42,48.98 1423.02,65.76 1417.35,101.26 C1414.64,119.4 1386.54,135.23 1373.24,140.67 C1362.89,144.9 1363.72,159.99 1363.72,159.99 L1395.55,159.99 C1436.98,141.28 1458,77.91 1458,16 L1413,16 Z M128.5,140.99 C109.8,151.93 79.48,136.67 60.78,107.29 C41.51,78.2 40.95,45.66 59.08,35.29 C77.5,24.63 107.81,39.61 126.51,68.98 C145.79,98.66 146.35,130.62 128.5,140.99 Z M412.04,98.75 C411.49,96.45 410.67,94.14 410.4,91.84 C409.85,89.25 407.94,87.81 405.74,87.81 L378,87.81 L378,70 C396,70 402.26,63.88 405,61 C422.53,39.69 465.16,34.25 465.16,62.18 C465.16,105.95 425.73,142.23 412.04,98.75 Z M846.63,34.14 C876.69,41.19 895.4,62.62 892.2,79.93 C889.04,97.05 861.2,118.78 812.34,87.24 C786.58,70.53 769.27,16 846.63,34.14 Z M889.91,128.9 C880.74,138.98 867.84,145.89 852.94,145.89 L802.2,145.89 C787.87,145.89 781.28,129.47 781.28,115.36 L781.28,73.02 C781.28,72.73 781.57,72.73 781.85,72.73 C799.91,100.67 852.65,119.39 895.35,119.39 L918,119.39 L918,131.49 C918,121.41 896.22,121.98 889.91,128.9 Z M1026,115 C991.63,139.11 958.47,123.67 954,106 C950.68,92.89 963.02,78.55 1003.1,78.21 C1018.39,78.08 1032.46,83.93 1041.98,93.44 C1042.85,94.02 1044,93.44 1044,92.58 L1044,79 C1044,72.66 1038.42,70 1032.07,70 L918,70 L918,61 L927,61 C934.37,60.93 941.4,58.31 946.55,53.05 C970.88,28.27 1053.86001,0.96 1053.86001,61.79 C1053.87,84.83 1044.95,101.71 1026,115 Z" id="Shape"></path>
        </g>
    </g>
</svg>