<svg width="74" height="275" viewBox="0 0 74 275" fill="none" xmlns="http://www.w3.org/2000/svg">
<path d="M63.241 135.748C59.9404 135.748 56.6368 135.769 53.3363 135.727C52.7389 135.722 52.5066 135.974 52.5307 137.088C52.573 139.142 52.5368 139.178 51.3843 139.184C50.808 139.184 50.6421 139.625 50.6421 140.565C50.6421 144.18 50.5999 147.794 50.6089 151.408C50.6089 152.411 50.4339 152.826 49.8366 152.816C48.7082 152.795 48.7113 152.837 48.7052 154.796C48.6901 158.19 48.6509 161.589 48.666 164.983C48.669 166.049 48.4669 166.438 47.8544 166.422C46.7713 166.39 46.7744 166.438 46.7683 168.292C46.7472 172.884 46.711 177.47 46.705 182.061C46.705 183.007 46.4998 183.332 45.9688 183.332C44.7983 183.332 44.8013 183.364 44.7952 185.428C44.7832 188.854 44.756 192.284 44.759 195.709C44.759 196.607 44.5599 196.928 44.0531 196.938C42.8553 196.959 42.8614 196.986 42.8523 199.087C42.8402 202.481 42.8071 205.879 42.8131 209.273C42.8131 210.224 42.6049 210.544 42.0769 210.55C40.9154 210.56 40.9214 210.592 40.9124 212.572C40.8973 215.997 40.8641 219.422 40.8671 222.853C40.8671 223.783 40.6801 224.145 40.1431 224.156C38.9785 224.177 38.9846 224.208 38.9725 226.262C38.9544 229.593 38.9091 232.923 38.9182 236.259C38.9182 237.273 38.7402 237.651 38.1428 237.641C36.8274 237.609 36.9632 237.347 36.9602 239.695C36.9541 250.953 36.9481 262.205 36.9662 273.458C36.9662 274.587 36.7942 275.065 36.1094 274.986C35.3552 274.902 34.5949 274.939 33.8376 274.997C33.2885 275.039 33.1135 274.65 33.1166 273.726C33.1286 266.403 33.1196 259.074 33.1166 251.751C33.1166 247.507 33.1045 243.262 33.1256 239.017C33.1316 238.024 32.9627 237.599 32.3593 237.609C31.2098 237.63 31.2129 237.583 31.2038 235.608C31.1978 234.447 31.1495 233.281 31.1676 232.12C31.1827 231.179 30.9655 230.843 30.4345 230.838C29.2579 230.827 29.2639 230.796 29.2549 228.779C29.2398 225.416 29.2005 222.054 29.2036 218.687C29.2036 217.673 28.9984 217.284 28.4131 217.295C27.3029 217.311 27.3059 217.274 27.2999 215.304C27.2938 213.008 27.2546 210.712 27.2757 208.422C27.2848 207.392 27.0676 207.04 26.4853 207.051C25.3599 207.072 25.366 207.03 25.3569 205.091C25.3418 201.698 25.3056 198.304 25.3117 194.905C25.3117 193.902 25.1186 193.497 24.5273 193.503C23.405 193.518 23.411 193.476 23.4019 191.533C23.3869 188.139 23.3446 184.745 23.3446 181.347C23.3446 180.327 23.1334 179.949 22.5512 179.96C21.4469 179.981 21.453 179.939 21.4469 178.042C21.4409 175.715 21.4047 173.388 21.4198 171.066C21.4258 170.105 21.2358 169.711 20.6686 169.716C19.507 169.716 19.5161 169.684 19.507 167.63C19.492 164.268 19.4527 160.906 19.4558 157.539C19.4558 156.499 19.2174 156.168 18.6472 156.178C17.5551 156.194 17.5581 156.157 17.552 154.245C17.546 151.918 17.5128 149.59 17.5279 147.268C17.5339 146.302 17.3439 145.924 16.7767 145.929C15.6152 145.934 15.6182 145.897 15.6121 143.849C15.6061 141.584 15.5699 139.32 15.591 137.061C15.6001 136.074 15.401 135.759 14.8398 135.759C10.8152 135.774 6.79356 135.727 2.76893 135.759C2.09313 135.764 1.82763 135.344 1.91211 134.219C2.02072 132.801 1.6617 132.234 0.868239 132.423C-0.0398674 132.638 0.0325397 131.577 0.00237007 130.516C-0.0277996 129.376 0.228642 129.066 0.853154 129.066C4.80538 129.087 8.75458 129.029 12.7068 129.066C13.4098 129.071 13.6692 128.719 13.636 127.464C13.5878 125.63 13.63 125.583 14.7191 125.614C15.3285 125.63 15.5428 125.247 15.5428 124.18C15.5397 120.598 15.594 117.015 15.591 113.432C15.591 112.418 15.7781 112.024 16.3694 112.04C17.4977 112.066 17.4917 112.019 17.5008 110.059C17.5158 106.634 17.552 103.209 17.552 99.7787C17.552 98.8332 17.7572 98.5127 18.2882 98.5127C19.4648 98.5232 19.4618 98.4864 19.4678 96.4534C19.4739 94.1577 19.507 91.862 19.4889 89.5716C19.4829 88.647 19.6639 88.274 20.207 88.2688C21.3926 88.2583 21.3866 88.2268 21.3957 86.199C21.4107 82.8369 21.45 79.4748 21.4439 76.1127C21.4439 75.0935 21.637 74.7153 22.2283 74.7363C23.3567 74.7678 23.3537 74.7258 23.3597 72.7821C23.3657 70.4549 23.3989 68.1277 23.3838 65.8057C23.3778 64.8864 23.5588 64.5029 24.1019 64.4977C25.2845 64.4871 25.2785 64.4556 25.2875 62.4174C25.3026 59.0237 25.3418 55.6301 25.3388 52.2312C25.3388 51.2856 25.541 50.9599 26.072 50.9599C27.2486 50.9599 27.2456 50.9284 27.2516 48.8901C27.2606 46.5944 27.2938 44.2988 27.2787 42.0083C27.2727 41.068 27.4748 40.7265 28.0088 40.7213C29.1764 40.7108 29.1704 40.6792 29.1824 38.6199C29.2005 35.2263 29.2367 31.8327 29.2367 28.4338C29.2367 27.5303 29.4329 27.2098 29.9427 27.2203C30.7181 27.2361 31.4934 27.0942 32.2658 27.131C32.8873 27.1625 33.0773 26.7265 33.0773 25.6811C33.0743 17.6646 33.1075 9.64805 33.0924 1.63153C33.0924 0.41277 33.2734 -0.0915463 34.0066 0.0135195C34.7427 0.118585 35.4849 0.0923189 36.224 0.0502926C36.7671 0.0187728 36.9511 0.38125 36.9481 1.32159C36.936 8.08257 36.9481 14.8383 36.9541 21.5993C36.9541 23.0439 36.9934 24.4886 36.9843 25.9385C36.9783 26.8053 37.1593 27.1888 37.6782 27.2045C38.891 27.2466 38.885 27.2728 38.8941 29.4004C38.9061 32.731 38.9423 36.0668 38.9333 39.3974C38.9333 40.4113 39.1354 40.8001 39.7207 40.7896C40.84 40.7738 40.837 40.8158 40.843 42.7595C40.8551 46.1532 40.8913 49.552 40.8792 52.9457C40.8762 54.0173 41.0995 54.3903 41.7028 54.3746C42.7859 54.343 42.7829 54.3903 42.789 56.313C42.801 59.7382 42.8372 63.1686 42.8282 66.5937C42.8282 67.6391 43.0665 67.9648 43.6337 67.9543C44.7349 67.9386 44.7289 67.9753 44.7379 69.8665C44.75 73.2917 44.7862 76.7221 44.7771 80.1472C44.7771 81.1611 44.9793 81.5498 45.5676 81.5393C46.6839 81.5236 46.6808 81.5656 46.6869 83.5146C46.6989 86.9082 46.7382 90.3071 46.7261 93.7007C46.7231 94.7776 46.9524 95.1401 47.5558 95.1243C48.6358 95.0928 48.6298 95.1401 48.6388 96.9788C48.6509 100.404 48.6871 103.834 48.6781 107.259C48.675 108.305 48.8712 108.73 49.4896 108.715C50.5878 108.683 50.5818 108.73 50.5878 110.632C50.5999 114.057 50.6361 117.488 50.627 120.913C50.627 121.932 50.8382 122.305 51.4205 122.3C52.5337 122.284 52.5307 122.321 52.5368 124.285C52.5398 125.415 52.5941 126.55 52.5639 127.679C52.5337 128.772 52.7932 129.082 53.3906 129.076C58.9659 129.055 64.5413 129.071 70.1166 129.076C71.1997 129.076 72.2828 129.097 73.3629 129.071C73.8275 129.061 74.0115 129.392 73.9994 130.195C73.9783 131.64 73.9632 133.09 73.9904 134.535C74.0085 135.501 73.7732 135.78 73.2482 135.774C69.9115 135.748 66.5717 135.759 63.2349 135.759L63.241 135.748ZM33.1166 88.2373H33.0924C33.0924 75.1303 33.0864 62.0234 33.1045 48.9164C33.1045 47.7081 32.7817 47.4875 32.2024 47.5348C31.6745 47.5768 31.1344 47.3824 31.1465 48.8428C31.1616 50.8654 31.1254 50.9021 29.9578 50.9021C29.3906 50.9021 29.2036 51.3014 29.2036 52.2575C29.2036 55.5881 29.1674 58.9187 29.1553 62.2492C29.1462 64.3768 29.1553 64.4083 27.9395 64.4346C27.4296 64.4451 27.2365 64.7761 27.2395 65.6639C27.2516 68.0226 27.2214 70.3761 27.2124 72.7348C27.2063 74.6523 27.2124 74.6995 26.1232 74.668C25.5108 74.6523 25.3026 75.0515 25.3056 76.1074C25.3147 79.4695 25.2725 82.8316 25.2574 86.1937C25.2483 88.1742 25.2574 88.211 24.1049 88.2057C23.5498 88.2057 23.3356 88.5367 23.3416 89.5296C23.3597 91.8568 23.3235 94.1787 23.3175 96.506C23.3114 98.4339 23.3175 98.4759 22.2314 98.4497C21.6219 98.4339 21.4077 98.8227 21.4077 99.8838C21.4168 103.246 21.3745 106.608 21.3595 109.97C21.3504 111.961 21.3595 111.993 20.21 111.987C19.6579 111.987 19.4346 112.313 19.4437 113.306C19.4618 115.57 19.4256 117.829 19.4165 120.093C19.4105 122.168 19.4165 122.2 18.2218 122.231C17.715 122.247 17.5038 122.594 17.5158 123.476C17.537 124.921 17.537 126.366 17.5309 127.816C17.5279 128.583 17.6878 128.987 18.1585 128.982C22.9192 128.977 27.68 128.977 32.4408 128.987C32.9084 128.987 33.0804 128.604 33.0773 127.831C33.0743 126.544 33.1075 125.257 33.1075 123.965C33.1075 112.05 33.1075 100.141 33.1075 88.2268L33.1166 88.2373ZM33.0864 173.083H33.1166C33.1166 172.264 33.1166 171.449 33.1166 170.63C33.1166 159.503 33.1135 148.372 33.1135 137.245C33.1135 136.478 33.1226 135.801 32.4921 135.801C28.3256 135.806 24.1562 135.79 19.9898 135.759C19.5644 135.759 19.4165 136.053 19.4256 136.767C19.4497 139.157 19.4588 141.542 19.4678 143.933C19.4739 145.96 19.4708 145.987 20.6565 146.008C21.1513 146.018 21.3715 146.291 21.3745 147.216C21.3745 150.641 21.4168 154.066 21.4349 157.491C21.4469 159.509 21.4409 159.545 22.5783 159.545C23.1425 159.545 23.3386 159.924 23.3295 160.896C23.3114 163.128 23.3507 165.361 23.3567 167.588C23.3657 169.742 23.3597 169.768 24.5755 169.795C25.0945 169.805 25.2664 170.162 25.2664 171.045C25.2664 174.439 25.3056 177.832 25.3207 181.226C25.3298 183.285 25.3268 183.317 26.4913 183.332C27.0223 183.338 27.2275 183.679 27.2214 184.619C27.2063 186.915 27.2395 189.211 27.2486 191.501C27.2546 193.545 27.2516 193.581 28.4282 193.576C28.9592 193.576 29.1613 193.902 29.1613 194.848C29.1613 198.336 29.2277 201.824 29.1975 205.312C29.1855 206.699 29.4178 207.329 30.2354 207.124C30.9443 206.951 31.2189 207.503 31.1736 208.737C31.1555 209.257 31.231 210.187 31.3728 210.255C31.8193 210.476 32.3352 210.502 32.7907 210.339C32.9386 210.287 33.0713 209.41 33.0713 208.911C33.0864 196.965 33.0834 185.019 33.0834 173.073L33.0864 173.083ZM36.9722 91.7885H36.9813C36.9813 103.729 36.9813 115.67 36.9813 127.616C36.9813 128.367 36.9511 129.071 37.5937 129.066C41.0753 129.024 44.5539 129.013 48.0354 129.008C48.5001 129.008 48.6811 128.646 48.6781 127.858C48.669 126.665 48.6901 125.467 48.6931 124.275C48.6931 122.258 48.6932 122.221 47.5437 122.231C46.9825 122.237 46.7834 121.885 46.7864 120.902C46.7955 117.477 46.7593 114.052 46.7472 110.627C46.7412 108.667 46.7442 108.636 45.6158 108.646C45.0758 108.652 44.8345 108.368 44.8375 107.349C44.8465 103.955 44.8133 100.561 44.8013 97.1679C44.7922 95.0928 44.7982 95.0613 43.6337 95.0613C43.1118 95.0613 42.8885 94.7619 42.8915 93.8005C42.8976 90.4069 42.8644 87.0133 42.8523 83.6196C42.8433 81.5236 42.8493 81.4973 41.6485 81.4763C41.1447 81.471 40.9426 81.1506 40.9426 80.2523C40.9426 76.7641 40.9154 73.2759 40.9003 69.7877C40.8943 67.9018 40.8973 67.8493 39.8263 67.9018C39.1867 67.9333 38.9815 67.5341 38.9846 66.4256C38.9936 62.8113 38.9303 59.1971 38.9333 55.5881C38.9333 54.3325 38.4958 54.3588 38.001 54.3693C37.5032 54.3798 36.9903 54.259 37.0145 55.5933C37.0326 56.7228 36.9783 57.8522 36.9783 58.987C36.9753 69.9243 36.9783 80.8617 36.9783 91.799L36.9722 91.7885ZM42.798 135.827V135.748C41.0663 135.748 39.3345 135.774 37.6028 135.732C37.111 135.722 36.9481 136.005 36.9481 136.867C36.9692 160.98 36.9843 185.092 36.9813 209.205C36.9813 210.539 37.4097 210.565 37.9618 210.55C38.4928 210.539 38.9665 210.613 38.9574 209.242C38.9393 205.785 38.9846 202.328 38.9996 198.866C39.0087 197.028 38.9996 196.986 40.0797 197.012C40.6741 197.028 40.9184 196.702 40.9124 195.609C40.8973 192.184 40.9335 188.759 40.9426 185.329C40.9486 183.416 40.9426 183.374 42.0377 183.401C42.6532 183.416 42.8553 183.001 42.8523 181.951C42.8433 178.526 42.8764 175.1 42.8885 171.67C42.8945 169.805 42.8885 169.763 43.9595 169.789C44.5599 169.805 44.7952 169.443 44.7922 168.366C44.7832 164.909 44.8616 161.447 44.8163 157.996C44.7982 156.52 45.0698 155.968 45.8934 156.157C46.4817 156.294 46.7321 155.863 46.7321 154.77C46.7321 150.273 46.7744 145.782 46.7955 141.285C46.8045 139.299 46.7955 139.236 47.9419 139.257C48.7746 139.273 48.6781 138.343 48.6931 137.419C48.7082 136.468 48.663 135.769 47.9359 135.79C46.2223 135.848 44.5086 135.811 42.795 135.811L42.798 135.827Z" fill="black"/>
</svg>
