<svg width="12" height="27" viewBox="0 0 12 27" fill="none" xmlns="http://www.w3.org/2000/svg">
<path d="M10.2553 13.328C9.72006 13.328 9.18435 13.33 8.64912 13.3259C8.55225 13.3254 8.51458 13.3502 8.5185 13.4595C8.52535 13.6612 8.51948 13.6648 8.33259 13.6653C8.23914 13.6653 8.21223 13.7086 8.21223 13.801C8.21223 14.1558 8.20538 14.5107 8.20685 14.8655C8.20685 14.964 8.17848 15.0048 8.08161 15.0037C7.89863 15.0017 7.89912 15.0058 7.89814 15.1982C7.8957 15.5314 7.88934 15.8651 7.89178 16.1983C7.89227 16.303 7.85949 16.3412 7.76018 16.3396C7.58454 16.3365 7.58503 16.3412 7.58405 16.5232C7.58063 16.974 7.57476 17.4243 7.57378 17.8751C7.57378 17.9679 7.54051 17.9999 7.45441 17.9999C7.26458 17.9999 7.26507 18.003 7.26409 18.2057C7.26214 18.542 7.25773 18.8788 7.25822 19.2151C7.25822 19.3033 7.22593 19.3347 7.14374 19.3358C6.94951 19.3378 6.95049 19.3404 6.94902 19.5467C6.94707 19.8799 6.94168 20.2136 6.94266 20.5468C6.94266 20.6402 6.90891 20.6716 6.82329 20.6721C6.63493 20.6732 6.63591 20.6763 6.63444 20.8707C6.632 21.207 6.62662 21.5433 6.62711 21.8801C6.62711 21.9714 6.59677 22.007 6.50969 22.008C6.32084 22.0101 6.32182 22.0132 6.31986 22.2148C6.31693 22.5418 6.30959 22.8688 6.31106 23.1964C6.31106 23.2959 6.28219 23.333 6.18532 23.332C5.97202 23.3289 5.99403 23.3031 5.99354 23.5337C5.99256 24.639 5.99159 25.7438 5.99452 26.8486C5.99452 26.9595 5.96663 27.0064 5.85558 26.9987C5.73327 26.9904 5.60998 26.994 5.48718 26.9997C5.39814 27.0038 5.36976 26.9657 5.37025 26.8749C5.37221 26.1559 5.37074 25.4364 5.37025 24.7174C5.37025 24.3006 5.3683 23.8839 5.37172 23.4671C5.3727 23.3697 5.3453 23.3279 5.24746 23.3289C5.06106 23.331 5.06155 23.3263 5.06008 23.1324C5.0591 23.0184 5.05127 22.9039 5.05421 22.7899C5.05665 22.6976 5.02143 22.6646 4.93532 22.6641C4.74452 22.663 4.7455 22.66 4.74403 22.4619C4.74158 22.1318 4.73522 21.8017 4.73571 21.4711C4.73571 21.3715 4.70245 21.3334 4.60753 21.3344C4.42749 21.336 4.42798 21.3323 4.427 21.1389C4.42603 20.9135 4.41967 20.6881 4.42309 20.4633C4.42456 20.3622 4.38933 20.3276 4.29491 20.3286C4.11242 20.3307 4.1134 20.3266 4.11194 20.1363C4.10949 19.8031 4.10362 19.4699 4.1046 19.1362C4.1046 19.0376 4.07329 18.9979 3.9774 18.9984C3.7954 19 3.79638 18.9959 3.79491 18.805C3.79246 18.4718 3.78561 18.1386 3.78561 17.8049C3.78561 17.7049 3.75137 17.6677 3.65694 17.6688C3.47788 17.6708 3.47886 17.6667 3.47788 17.4805C3.47691 17.252 3.47103 17.0235 3.47348 16.7956C3.47446 16.7012 3.44364 16.6625 3.35166 16.663C3.1633 16.663 3.16477 16.6599 3.1633 16.4582C3.16086 16.1281 3.1545 15.798 3.15499 15.4674C3.15499 15.3653 3.11634 15.3328 3.02387 15.3338C2.84677 15.3354 2.84726 15.3318 2.84628 15.144C2.8453 14.9156 2.83992 14.6871 2.84236 14.4591C2.84334 14.3642 2.81252 14.327 2.72054 14.3276C2.53219 14.3281 2.53268 14.3245 2.5317 14.1233C2.53072 13.901 2.52485 13.6787 2.52827 13.4569C2.52974 13.36 2.49745 13.329 2.40645 13.329C1.75381 13.3306 1.10166 13.3259 0.449015 13.329C0.339426 13.3295 0.296373 13.2883 0.310072 13.1779C0.327684 13.0386 0.269465 12.9829 0.140795 13.0015C-0.00646499 13.0226 0.00527671 12.9185 0.000384335 12.8143C-0.00450804 12.7023 0.0370771 12.6719 0.138349 12.6719C0.77925 12.674 1.41966 12.6683 2.06056 12.6719C2.17456 12.6724 2.21663 12.6379 2.21125 12.5146C2.20342 12.3346 2.21027 12.33 2.38688 12.3331C2.48571 12.3346 2.52045 12.2969 2.52045 12.1922C2.51996 11.8405 2.52876 11.4887 2.52827 11.137C2.52827 11.0374 2.55861 10.9987 2.6545 11.0003C2.83747 11.0029 2.83649 10.9982 2.83796 10.8058C2.84041 10.4695 2.84628 10.1333 2.84628 9.79646C2.84628 9.70362 2.87955 9.67216 2.96565 9.67216C3.15645 9.67319 3.15597 9.66958 3.15694 9.46997C3.15792 9.24458 3.1633 9.01918 3.16037 8.7943C3.15939 8.70353 3.18874 8.66691 3.27681 8.66639C3.46908 8.66536 3.4681 8.66226 3.46957 8.46317C3.47201 8.13308 3.47837 7.80298 3.47739 7.47288C3.47739 7.37282 3.50871 7.33568 3.6046 7.33775C3.78757 7.34084 3.78708 7.33672 3.78806 7.14588C3.78904 6.91739 3.79442 6.6889 3.79197 6.46093C3.791 6.37066 3.82035 6.33301 3.90841 6.3325C4.10019 6.33147 4.09922 6.32837 4.10068 6.12825C4.10313 5.79506 4.10949 5.46186 4.109 5.12816C4.109 5.03532 4.14178 5.00334 4.22788 5.00334C4.41869 5.00334 4.4182 5.00024 4.41918 4.80012C4.42064 4.57473 4.42603 4.34933 4.42358 4.12445C4.4226 4.03213 4.45538 3.9986 4.54198 3.99809C4.73131 3.99706 4.73033 3.99396 4.73229 3.79178C4.73522 3.45858 4.74109 3.12539 4.74109 2.79168C4.74109 2.70297 4.7729 2.67151 4.85558 2.67254C4.98131 2.67409 5.10704 2.66016 5.23229 2.66377C5.33307 2.66687 5.36389 2.62406 5.36389 2.52142C5.3634 1.73434 5.36879 0.947263 5.36634 0.160187C5.36634 0.0405265 5.39569 -0.00898818 5.51458 0.00132737C5.63395 0.0116429 5.75431 0.00906403 5.87417 0.00493781C5.96223 0.00184315 5.99207 0.0374318 5.99159 0.129756C5.98963 0.793562 5.99159 1.45685 5.99256 2.12066C5.99256 2.2625 5.99892 2.40433 5.99746 2.54669C5.99648 2.63179 6.02583 2.66944 6.10998 2.67099C6.30665 2.67512 6.30568 2.6777 6.30714 2.88659C6.3091 3.21359 6.31497 3.54111 6.3135 3.86811C6.3135 3.96766 6.34628 4.00582 6.44119 4.00479C6.6227 4.00325 6.62221 4.00737 6.62319 4.19821C6.62515 4.5314 6.63102 4.86511 6.62906 5.1983C6.62857 5.30352 6.66478 5.34014 6.76262 5.33859C6.93826 5.3355 6.93777 5.34014 6.93875 5.52892C6.94071 5.8652 6.94658 6.20201 6.94511 6.53829C6.94511 6.64093 6.98376 6.67291 7.07574 6.67188C7.25431 6.67033 7.25333 6.67394 7.2548 6.85962C7.25675 7.19591 7.26262 7.53271 7.26116 7.869C7.26116 7.96854 7.29394 8.00671 7.38934 8.00568C7.57036 8.00413 7.56987 8.00826 7.57084 8.19961C7.5728 8.5328 7.57916 8.86651 7.5772 9.1997C7.57671 9.30544 7.6139 9.34103 7.71174 9.33948C7.88689 9.33639 7.88591 9.34103 7.88738 9.52155C7.88934 9.85784 7.89521 10.1946 7.89374 10.5309C7.89325 10.6336 7.92505 10.6753 8.02535 10.6738C8.20343 10.6707 8.20245 10.6753 8.20343 10.8621C8.20539 11.1983 8.21126 11.5351 8.20979 11.8714C8.20979 11.9715 8.24403 12.0081 8.33846 12.0076C8.51899 12.006 8.5185 12.0097 8.51948 12.2026C8.51996 12.3135 8.52877 12.4249 8.52388 12.5358C8.51899 12.643 8.56106 12.6735 8.65793 12.6729C9.56204 12.6709 10.4662 12.6724 11.3703 12.6729C11.5459 12.6729 11.7215 12.675 11.8967 12.6724C11.972 12.6714 12.0019 12.7039 11.9999 12.7828C11.9965 12.9246 11.994 13.067 11.9984 13.2088C12.0014 13.3037 11.9632 13.3311 11.8781 13.3306C11.337 13.328 10.7954 13.329 10.2543 13.329L10.2553 13.328ZM5.37025 8.6633H5.36634C5.36634 7.37643 5.36536 6.08957 5.3683 4.8027C5.3683 4.68407 5.31595 4.66241 5.22202 4.66705C5.1364 4.67118 5.04883 4.65209 5.05078 4.79548C5.05323 4.99405 5.04736 4.99766 4.85802 4.99766C4.76605 4.99766 4.73571 5.03686 4.73571 5.13074C4.73571 5.45774 4.72984 5.78474 4.72789 6.11174C4.72642 6.32063 4.72789 6.32373 4.53072 6.32631C4.44804 6.32734 4.41673 6.35983 4.41722 6.447C4.41918 6.67858 4.41428 6.90965 4.41282 7.14124C4.41184 7.32949 4.41282 7.33414 4.2362 7.33104C4.13689 7.3295 4.10313 7.36869 4.10362 7.47236C4.10509 7.80246 4.09824 8.13256 4.09579 8.46266C4.09432 8.65711 4.09579 8.66072 3.9089 8.6602C3.81888 8.6602 3.78415 8.69269 3.78512 8.79018C3.78806 9.01867 3.78219 9.24664 3.78121 9.47513C3.78023 9.66442 3.78121 9.66855 3.60509 9.66597C3.50626 9.66442 3.47152 9.70259 3.47152 9.80677C3.47299 10.1369 3.46614 10.467 3.4637 10.7971C3.46223 10.9925 3.4637 10.9956 3.2773 10.9951C3.18777 10.9951 3.15156 11.0271 3.15303 11.1246C3.15597 11.3469 3.15009 11.5687 3.14863 11.791C3.14765 11.9947 3.14863 11.9978 2.95489 12.0009C2.8727 12.0024 2.83845 12.0365 2.84041 12.1231C2.84383 12.265 2.84383 12.4068 2.84285 12.5492C2.84236 12.6245 2.86829 12.6642 2.94462 12.6637C3.71663 12.6632 4.48865 12.6632 5.26067 12.6642C5.3365 12.6642 5.36438 12.6265 5.36389 12.5507C5.3634 12.4243 5.36879 12.298 5.36879 12.1711C5.36879 11.0013 5.36879 9.83205 5.36879 8.66226L5.37025 8.6633ZM5.36536 16.9936H5.37025C5.37025 16.9132 5.37025 16.8332 5.37025 16.7527C5.37025 15.6603 5.36976 14.5674 5.36976 13.475C5.36976 13.3997 5.37123 13.3331 5.26898 13.3331C4.59335 13.3337 3.91722 13.3321 3.24158 13.329C3.1726 13.329 3.14863 13.3579 3.15009 13.428C3.15401 13.6627 3.15548 13.8969 3.15694 14.1316C3.15792 14.3307 3.15743 14.3332 3.3497 14.3353C3.42994 14.3363 3.46565 14.3632 3.46614 14.4539C3.46614 14.7902 3.47299 15.1265 3.47593 15.4628C3.47788 15.6608 3.47691 15.6645 3.66135 15.6645C3.75284 15.6645 3.78464 15.7016 3.78317 15.797C3.78023 16.0162 3.78659 16.2354 3.78757 16.4541C3.78904 16.6656 3.78806 16.6682 3.98522 16.6707C4.06937 16.6718 4.09726 16.7068 4.09726 16.7935C4.09726 17.1267 4.10362 17.4599 4.10606 17.7931C4.10753 17.9953 4.10704 17.9984 4.29589 17.9999C4.38199 18.0004 4.41526 18.0339 4.41428 18.1263C4.41184 18.3517 4.41722 18.5771 4.41869 18.8019C4.41967 19.0026 4.41918 19.0062 4.60998 19.0057C4.69608 19.0057 4.72886 19.0376 4.72886 19.1305C4.72886 19.473 4.73963 19.8154 4.73473 20.1579C4.73278 20.2941 4.77045 20.356 4.90303 20.3359C5.018 20.3188 5.06252 20.373 5.05519 20.4942C5.05225 20.5453 5.06448 20.6366 5.08747 20.6433C5.15988 20.6649 5.24354 20.6675 5.31742 20.6515C5.34139 20.6464 5.36292 20.5602 5.36292 20.5112C5.36536 19.3383 5.36487 18.1655 5.36487 16.9926L5.36536 16.9936ZM5.9955 9.01196H5.99697C5.99697 10.1843 5.99697 11.3567 5.99697 12.5296C5.99697 12.6033 5.99207 12.6724 6.09628 12.6719C6.66086 12.6678 7.22495 12.6668 7.78953 12.6662C7.86488 12.6662 7.89423 12.6307 7.89374 12.5533C7.89227 12.4362 7.8957 12.3186 7.89619 12.2015C7.89619 12.0035 7.89619 11.9999 7.70979 12.0009C7.61879 12.0014 7.5865 11.9669 7.58699 11.8704C7.58846 11.5341 7.58259 11.1978 7.58063 10.8615C7.57965 10.6692 7.58014 10.6661 7.39716 10.6671C7.30959 10.6676 7.27045 10.6398 7.27094 10.5397C7.27241 10.2065 7.26703 9.87331 7.26507 9.54012C7.2636 9.33639 7.26458 9.33329 7.07574 9.33329C6.9911 9.33329 6.95489 9.30389 6.95538 9.2095C6.95636 8.87631 6.95098 8.54312 6.94902 8.20993C6.94756 8.00413 6.94853 8.00155 6.75382 7.99949C6.67211 7.99897 6.63934 7.96751 6.63934 7.87931C6.63934 7.53684 6.63493 7.19436 6.63249 6.85188C6.63151 6.66672 6.632 6.66156 6.45832 6.66672C6.3546 6.66982 6.32133 6.63062 6.32182 6.52179C6.32329 6.16693 6.31301 5.81208 6.3135 5.45774C6.3135 5.33447 6.24256 5.33705 6.16233 5.33808C6.08161 5.33911 5.99843 5.32725 6.00235 5.45825C6.00528 5.56915 5.99648 5.68004 5.99648 5.79145C5.99599 6.86529 5.99648 7.93914 5.99648 9.01299L5.9955 9.01196ZM6.94022 13.3357V13.328C6.65939 13.328 6.37857 13.3306 6.09775 13.3264C6.018 13.3254 5.99159 13.3533 5.99159 13.4378C5.99501 15.8053 5.99746 18.1727 5.99697 20.5401C5.99697 20.6711 6.06644 20.6737 6.15597 20.6721C6.24208 20.6711 6.31889 20.6783 6.31742 20.5437C6.31448 20.2043 6.32182 19.865 6.32427 19.5251C6.32573 19.3445 6.32427 19.3404 6.49941 19.343C6.59579 19.3445 6.63542 19.3126 6.63444 19.2053C6.632 18.869 6.63787 18.5327 6.63934 18.1959C6.64031 18.0082 6.63934 18.004 6.81693 18.0066C6.91673 18.0082 6.94951 17.9674 6.94902 17.8643C6.94756 17.528 6.95294 17.1917 6.95489 16.8549C6.95587 16.6718 6.95489 16.6676 7.12857 16.6702C7.22593 16.6718 7.26409 16.6362 7.2636 16.5304C7.26214 16.1911 7.27486 15.8512 7.26752 15.5123C7.26458 15.3674 7.30861 15.3132 7.44217 15.3318C7.53758 15.3452 7.57818 15.3029 7.57818 15.1956C7.57818 14.7541 7.58503 14.3131 7.58846 13.8716C7.58992 13.6767 7.58846 13.6705 7.77437 13.6725C7.9094 13.6741 7.89374 13.5828 7.89619 13.492C7.89863 13.3986 7.89129 13.3301 7.77339 13.3321C7.4955 13.3378 7.21761 13.3342 6.93973 13.3342L6.94022 13.3357Z" fill="white"/>
</svg>
